/* XPM */
static char *plus[] = {
/* columns rows colors chars-per-pixel */
"30 32 2 1 ",
"  c black",
". c None",
/* pixels */
"..............................",
"..............................",
"..............................",
".............     ............",
".............     ............",
".............     ............",
".............     ............",
".............     ............",
".............     ............",
".............     ............",
".............     ............",
".............     ............",
".............     ............",
".............     ............",
"..                           .",
"..                           .",
"..                           .",
"..                           .",
"..                           .",
".............     ............",
".............     ............",
".............     ............",
".............     ............",
".............     ............",
".............     ............",
".............     ............",
".............     ............",
".............     ............",
".............     ............",
".............     ............",
"..............................",
".............................."
};
